<?xml version="1.0" encoding="UTF-8" standalone="no"?>
<!-- Created with Inkscape (http://www.inkscape.org/) -->

<svg
   version="1.1"
   id="svg2"
   width="546.1333"
   height="546.1333"
   viewBox="0 0 546.1333 546.1333"
   sodipodi:docname="is-less-than.png"
   xmlns:inkscape="http://www.inkscape.org/namespaces/inkscape"
   xmlns:sodipodi="http://sodipodi.sourceforge.net/DTD/sodipodi-0.dtd"
   xmlns="http://www.w3.org/2000/svg"
   xmlns:svg="http://www.w3.org/2000/svg">
  <defs
     id="defs6" />
  <sodipodi:namedview
     id="namedview4"
     pagecolor="#ffffff"
     bordercolor="#000000"
     borderopacity="0.25"
     inkscape:showpageshadow="2"
     inkscape:pageopacity="0.0"
     inkscape:pagecheckerboard="0"
     inkscape:deskcolor="#d1d1d1"
     showgrid="false" />
  <g
     inkscape:groupmode="layer"
     inkscape:label="Image"
     id="g8">
    <g
       id="g1475"
       transform="translate(760.22981,940.27428)">
      <g
         id="g1448"
         transform="translate(-760.22981,-940.23491)">
        <path
           style="fill:#fefefd;stroke-width:1.06667"
           d="m 86.188014,522.23296 c -3.929922,-1.38711 -10.805449,-4.49627 -15.278948,-6.90925 -4.4735,-2.41297 -10.902202,-6.51759 -14.286006,-9.12136 -3.383804,-2.60378 -8.551565,-7.35924 -11.483916,-10.5677 -2.932351,-3.20846 -7.13255,-8.54689 -9.333774,-11.86318 -2.201226,-3.31628 -5.838875,-9.96154 -8.083666,-14.76722 -2.24479,-4.80569 -4.82211,-11.61761 -5.727377,-15.13761 -0.905266,-3.52 -2.140388,-10.72 -2.744715,-16 -0.704903,-6.15873 -1.098776,-65.2338 -1.098776,-164.79999 0,-99.56619 0.393873,-158.64126 1.098776,-164.79999 0.604327,-5.28 1.839449,-12.479999 2.744715,-15.999999 0.905267,-3.52 3.482587,-10.331925 5.727377,-15.137612 2.244791,-4.805687 5.88244,-11.450937 8.083666,-14.767222 2.201224,-3.316287 6.434103,-8.690471 9.406395,-11.942632 2.972292,-3.252162 8.535582,-8.291082 12.362866,-11.197602 3.827284,-2.906519 11.758698,-7.608079 17.625364,-10.447912 5.866667,-2.839831 12.523731,-5.652725 14.793477,-6.250873 2.269746,-0.598148 3.919947,-0.880679 3.667115,-0.627847 -0.252832,0.252832 -3.309896,2.305926 -6.793477,4.562432 -3.483579,2.256505 -9.27455,6.554913 -12.868823,9.552018 -3.594273,2.997105 -9.599824,9.279785 -13.345668,13.961512 -3.745845,4.681728 -8.793338,12.27352 -11.216651,16.870652 -2.423313,4.597131 -5.66807,12.068914 -7.210571,16.60396 -1.542502,4.535047 -3.511411,12.935047 -4.375352,18.666665 -1.330174,8.82472 -1.570805,35.0131 -1.570805,170.95445 0,135.94135 0.240631,162.12973 1.570805,170.95445 0.863941,5.73162 2.83285,14.13162 4.375352,18.66667 1.542501,4.53504 4.787258,12.00683 7.210571,16.60396 2.423313,4.59713 7.470806,12.18892 11.216651,16.87065 3.745844,4.68173 9.751395,10.96441 13.345668,13.96151 3.594273,2.9971 9.385244,7.29551 12.868823,9.55201 3.483581,2.25652 6.563581,4.33254 6.844445,4.6134 0.280864,0.28087 0.310661,0.50055 0.06622,0.48817 -0.244444,-0.0124 -3.659835,-1.15741 -7.589759,-2.54451 z"
           id="path1464"
           sodipodi:nodetypes="sssssssssssssssssssssssssssssssssss" />
        <path
           style="fill:#9f9f9f;stroke-width:1.06667"
           d="m 105.39999,545.40465 c 0.77,-0.30813 1.69,-0.27024 2.04445,0.0842 0.35444,0.35444 -0.27556,0.60655 -1.4,0.56023 -1.24261,-0.0512 -1.49536,-0.30393 -0.64445,-0.64443 z m 333.86665,0 c 0.76999,-0.30813 1.69001,-0.27024 2.04445,0.0842 0.35444,0.35444 -0.27556,0.60655 -1.4,0.56023 -1.24262,-0.0512 -1.49536,-0.30393 -0.64445,-0.64443 z M 97.933327,544.33798 c 0.77,-0.30813 1.69,-0.27024 2.044445,0.0842 0.354448,0.35445 -0.275556,0.60655 -1.4,0.56024 -1.242606,-0.0512 -1.49536,-0.30394 -0.644445,-0.64444 z m 348.799983,0 c 0.76999,-0.30813 1.69,-0.27024 2.04444,0.0842 0.35445,0.35445 -0.27556,0.60655 -1.4,0.56024 -1.24261,-0.0512 -1.49536,-0.30394 -0.64444,-0.64444 z m -412.657401,-33.13801 -3.675911,-4 4,3.67591 c 2.2,2.02175 4,3.82175 4,4 0,0.17825 -0.14584,0.32409 -0.324089,0.32409 -0.178248,0 -1.978248,-1.8 -4,-4 z m 476.857391,0.26667 c 1.99017,-2.05334 3.85849,-3.73334 4.15182,-3.73334 0.29333,0 -1.09499,1.68 -3.08515,3.73334 -1.99017,2.05333 -3.85849,3.73333 -4.15182,3.73333 -0.29333,0 1.09499,-1.68 3.08515,-3.73333 z M 1.1508772,447.37775 c 0.051183,-1.24261 0.3039363,-1.49536 0.6444443,-0.64444 0.3081286,0.76999 0.2702339,1.69 -0.08421,2.04444 -0.3544445,0.35445 -0.6065498,-0.27556 -0.5602343,-1.4 z m 542.9333028,0 c 0.0512,-1.24261 0.30394,-1.49536 0.64444,-0.64444 0.30813,0.76999 0.27024,1.69 -0.0842,2.04444 -0.35445,0.35445 -0.60655,-0.27556 -0.56024,-1.4 z M 0.08421052,439.91109 c 0.05118285,-1.24262 0.3039363,-1.49536 0.64444441,-0.64445 0.30812867,0.76999 0.27023389,1.69001 -0.0842106,2.04445 -0.35444443,0.35444 -0.60654967,-0.27556 -0.56023381,-1.4 z m 545.06663948,0 c 0.0512,-1.24262 0.30393,-1.49536 0.64443,-0.64445 0.30813,0.76999 0.27024,1.69001 -0.0842,2.04445 -0.35444,0.35444 -0.60655,-0.27556 -0.56023,-1.4 z M 18.380802,435.19997 c 0,-2.05333 0.219515,-2.89333 0.487811,-1.86666 0.268296,1.02666 0.268296,2.70666 0,3.73333 -0.268296,1.02667 -0.487811,0.18667 -0.487811,-1.86667 z m 0,-324.26664 c 0,-2.05334 0.219515,-2.89334 0.487811,-1.86667 0.268296,1.02667 0.268296,2.70667 0,3.73333 -0.268296,1.02667 -0.487811,0.18667 -0.487811,-1.86666 z M 0.08421052,106.04444 c 0.05118285,-1.24261 0.3039363,-1.49536 0.64444441,-0.64445 0.30812867,0.77 0.27023389,1.69 -0.0842106,2.04445 -0.35444443,0.35444 -0.60654967,-0.27556 -0.56023381,-1.4 z m 545.06663948,0 c 0.0512,-1.24261 0.30393,-1.49536 0.64443,-0.64445 0.30813,0.77 0.27024,1.69 -0.0842,2.04445 -0.35444,0.35444 -0.60655,-0.27556 -0.56023,-1.4 z M 1.1508772,98.577772 c 0.051183,-1.242606 0.3039363,-1.49536 0.6444443,-0.644445 0.3081286,0.77 0.2702339,1.69 -0.08421,2.044445 -0.3544445,0.354448 -0.6065498,-0.275556 -0.5602343,-1.4 z m 542.9333028,0 c 0.0512,-1.242606 0.30394,-1.49536 0.64444,-0.644445 0.30813,0.77 0.27024,1.69 -0.0842,2.044445 -0.35445,0.354448 -0.60655,-0.275556 -0.56024,-1.4 z M 34.133331,34.666665 c 1.990169,-2.053334 3.85849,-3.733334 4.151823,-3.733334 0.293333,0 -1.094988,1.68 -3.085156,3.733334 -1.990169,2.053333 -3.85849,3.733333 -4.151823,3.733333 -0.293333,0 1.094988,-1.68 3.085156,-3.733333 z m 476.742549,-0.266667 -3.67591,-4 4,3.675911 c 2.2,2.021752 4,3.821752 4,4 0,0.178249 -0.14584,0.324089 -0.32409,0.324089 -0.17825,0 -1.97825,-1.8 -4,-4 z M 97.933327,1.4046783 c 0.77,-0.3081286 1.69,-0.2702339 2.044445,0.08421 0.354448,0.3544445 -0.275556,0.6065498 -1.4,0.5602339 -1.242606,-0.051183 -1.49536,-0.303936 -0.644445,-0.6444439 z m 348.799983,0 c 0.76999,-0.3081286 1.69,-0.2702339 2.04444,0.08421 0.35445,0.3544445 -0.27556,0.6065498 -1.4,0.5602339 -1.24261,-0.051183 -1.49536,-0.3039363 -0.64444,-0.6444439 z M 105.39999,0.33801167 c 0.77,-0.30812863 1.69,-0.27023389 2.04445,0.0842106 0.35444,0.35444443 -0.27556,0.60654963 -1.4,0.56023389 -1.24261,-0.0511828 -1.49536,-0.3039363 -0.64445,-0.64444449 z m 333.86665,0 c 0.76999,-0.30812863 1.69001,-0.27023389 2.04445,0.0842106 0.35444,0.35444443 -0.27556,0.60654963 -1.4,0.56023389 -1.24262,-0.0511828 -1.49536,-0.3039363 -0.64445,-0.64444449 z"
           id="path1462" />
        <path
           style="fill:#FDD835;stroke-width:1.06667"
           d="m 106.75761,526.77865 c -5.37148,-0.56126 -10.815344,-1.85662 -13.557,-3.22587 -2.519708,-1.2584 -8.71718,-5.39204 -13.772162,-9.18587 -5.054981,-3.79382 -12.324702,-10.55841 -16.154936,-15.0324 -3.830233,-4.474 -9.073613,-11.72437 -11.651954,-16.11195 -2.578341,-4.38758 -6.114544,-11.71344 -7.858231,-16.27969 -1.743686,-4.56625 -4.02376,-12.25641 -5.066833,-17.08925 -1.77233,-8.21168 -1.896496,-19.78623 -1.896496,-176.78697 0,-157.00074 0.124166,-168.57529 1.896496,-176.786971 1.043073,-4.832839 3.323147,-12.523004 5.066833,-17.089254 1.743687,-4.56625 5.27989,-11.892109 7.858231,-16.279684 2.578341,-4.387577 7.821721,-11.637953 11.651954,-16.111949 3.830234,-4.473996 11.099955,-11.238577 16.154936,-15.0324 5.054982,-3.793825 11.211525,-7.904897 13.68121,-9.135717 2.914724,-1.452613 8.366382,-2.634269 15.536682,-3.367598 7.22342,-0.738761 64.12616,-1.129745 164.42031,-1.129745 100.29415,0 157.19689,0.390984 164.42031,1.129745 7.17029,0.733329 12.62196,1.914985 15.53668,3.367598 2.46969,1.23082 8.62623,5.341892 13.68122,9.135717 5.05497,3.793823 12.32469,10.558404 16.15493,15.0324 3.83023,4.473996 9.07361,11.724372 11.65196,16.111949 2.57833,4.387575 6.11453,11.713434 7.85822,16.279684 1.74368,4.56625 4.02376,12.256415 5.06684,17.089254 1.77232,8.211681 1.89649,19.786231 1.89649,176.786971 0,157.00074 -0.12417,168.57529 -1.89649,176.78697 -1.04308,4.83284 -3.32316,12.523 -5.06684,17.08925 -1.74369,4.56625 -5.27989,11.89211 -7.85822,16.27969 -2.57835,4.38758 -7.82173,11.63795 -11.65196,16.11195 -3.83024,4.47399 -11.09996,11.23858 -16.15493,15.0324 -5.05499,3.79383 -11.21153,7.9049 -13.68122,9.13571 -2.91472,1.45262 -8.36639,2.63428 -15.53668,3.3676 -7.30304,0.74691 -63.69158,1.08172 -166.39999,0.98801 -85.44451,-0.078 -159.39272,-0.56377 -164.32936,-1.07958 z M 252.82398,360.79386 c 1.16014,-1.47487 2.10934,-4.26444 2.10934,-6.19904 0,-3.10836 -4.03655,-8.04957 -34.70564,-42.48384 l -34.70563,-38.96638 34.15962,-38.46945 c 18.7878,-21.15819 34.47429,-39.72314 34.85887,-41.25543 0.38459,-1.5323 0.26781,-4.03858 -0.25951,-5.56952 -0.56143,-1.63 -2.6013,-3.5874 -4.92225,-4.72326 -3.42953,-1.67839 -4.36288,-1.74996 -6.92782,-0.53125 -1.63037,0.77466 -19.44035,19.88752 -39.57774,42.47304 -20.13738,22.58553 -37.30382,42.62459 -38.14764,44.53125 -1.32833,3.00144 -1.3308,3.9319 -0.0183,6.93334 0.83371,1.90666 14.3391,17.86666 30.01198,35.46666 15.67288,17.6 32.52573,36.40773 37.45076,41.79496 5.13533,5.61726 9.97016,9.94793 11.33566,10.1536 1.30959,0.19725 3.47187,0.1715 4.80506,-0.0573 1.33321,-0.22872 3.37321,-1.62258 4.53334,-3.09745 z M 377.5373,299.23239 c 1.67152,-0.86438 3.55111,-3.05849 4.18996,-4.89107 0.8903,-2.5539 0.81272,-4.15124 -0.33502,-6.89816 -1.13425,-2.71462 -2.47586,-3.86134 -5.57626,-4.76619 -2.84211,-0.82946 -20.99188,-1.09308 -59.73075,-0.86758 l -55.64808,0.32393 -2.75192,2.58593 c -1.9833,1.86369 -2.74244,3.6512 -2.71799,6.4 0.0187,2.09773 0.61866,4.56891 1.33333,5.49149 0.71468,0.9226 2.25941,2.22799 3.43275,2.9009 1.52855,0.87663 18.0994,1.23266 58.45296,1.2559 47.50358,0.0274 56.79416,-0.21295 59.35102,-1.53515 z m -0.58075,-36.18433 c 2.35158,-0.98255 3.94585,-2.60719 4.71026,-4.8 0.81738,-2.34473 0.82577,-4.26066 0.0287,-6.54715 -0.61976,-1.77783 -2.49095,-3.93783 -4.15821,-4.8 -2.55402,-1.32074 -11.86925,-1.56759 -59.15447,-1.56759 -40.62255,0 -56.76658,0.34272 -58.45297,1.24089 -1.28143,0.6825 -2.91461,2.0025 -3.62929,2.93334 -0.71467,0.93083 -1.31467,3.40877 -1.33333,5.5065 -0.0234,2.62719 0.71292,4.49353 2.36608,5.99757 1.32,1.20092 3.12,2.4467 4,2.76839 0.88,0.32169 26.45541,0.62278 56.83426,0.66909 44.93273,0.0685 55.89723,-0.1928 58.78897,-1.40104 z"
           id="path1460" />
        <path
           style="fill:#fda700;stroke-width:1.06667"
           d="m 452.41819,524.29286 c 0.28282,-0.28282 3.36442,-2.36044 6.848,-4.61696 3.48358,-2.2565 9.27455,-6.55491 12.86882,-9.55201 3.59427,-2.9971 9.59983,-9.27978 13.34568,-13.96151 3.74584,-4.68173 8.79333,-12.27352 11.21665,-16.87065 2.4233,-4.59713 5.66806,-12.06892 7.21057,-16.60396 1.54249,-4.53505 3.51141,-12.93505 4.37534,-18.66667 1.33018,-8.82472 1.57081,-35.0131 1.57081,-170.95445 0,-135.94135 -0.24063,-162.12973 -1.57081,-170.95445 -0.86393,-5.731618 -2.83285,-14.131618 -4.37534,-18.666665 -1.54251,-4.535046 -4.78727,-12.006829 -7.21057,-16.60396 -2.42332,-4.597132 -7.47081,-12.188924 -11.21665,-16.870652 -3.74585,-4.681727 -9.75141,-10.964407 -13.34568,-13.961512 -3.59427,-2.997105 -9.38524,-7.295513 -12.86882,-9.552018 -3.48358,-2.256506 -6.56518,-4.334134 -6.848,-4.616952 -0.28281,-0.282818 1.60738,0.125399 4.20045,0.907146 2.59307,0.781748 7.83466,2.799707 11.648,4.484353 3.81333,1.684646 10.29333,5.223753 14.4,7.864683 4.10666,2.64093 11.08954,8.424569 15.5175,12.852531 4.42797,4.427964 10.22501,11.410842 12.88232,15.517509 2.65733,4.106666 6.56334,11.546666 8.68005,16.533332 2.1167,4.986666 4.71966,13.146666 5.78434,18.133332 1.82276,8.537323 1.93578,18.750633 1.93578,174.933323 0,156.18269 -0.11302,166.396 -1.93578,174.93332 -1.06468,4.98667 -3.66764,13.14667 -5.78434,18.13333 -2.11671,4.98667 -6.02272,12.42667 -8.68005,16.53334 -2.65731,4.10666 -8.45435,11.08954 -12.88232,15.5175 -4.42796,4.42797 -11.41084,10.2116 -15.5175,12.85253 -4.10667,2.64094 -10.58667,6.18005 -14.4,7.86468 -3.81334,1.68466 -9.05493,3.70262 -11.648,4.48437 -2.59307,0.78174 -4.48326,1.18996 -4.20045,0.90714 z"
           id="path1458" />
        <path
           style="fill:#5b5b5b;stroke-width:1.06667"
           d="m 109.06666,545.39801 c 1.02667,-0.26828 2.70667,-0.26828 3.73333,0 1.02667,0.2683 0.18667,0.48782 -1.86666,0.48782 -2.05334,0 -2.89334,-0.21952 -1.86667,-0.48782 z m 324.26665,0 c 1.02666,-0.26828 2.70666,-0.26828 3.73333,0 1.02667,0.2683 0.18667,0.48782 -1.86667,0.48782 -2.05333,0 -2.89333,-0.21952 -1.86666,-0.48782 z m -386.457401,-46.99804 -3.675912,-4 4,3.67591 c 2.2,2.02175 4,3.82175 4,4 0,0.17825 -0.14584,0.32409 -0.324089,0.32409 -0.178248,0 -1.978248,-1.8 -3.999999,-4 z m -46.62843947,-63.2 c 0,-2.05333 0.21951494,-2.89333 0.48781097,-1.86666 0.268296,1.02666 0.268296,2.70666 0,3.73333 -0.26829603,1.02667 -0.48781097,0.18667 -0.48781097,-1.86667 z m 545.06663047,0 c 0,-2.05333 0.21952,-2.89333 0.48782,-1.86666 0.26829,1.02666 0.26829,2.70666 0,3.73333 -0.2683,1.02667 -0.48782,0.18667 -0.48782,-1.86667 z M 0.24746953,110.93333 c 0,-2.05334 0.21951494,-2.89334 0.48781097,-1.86667 0.268296,1.02667 0.268296,2.70667 0,3.73333 -0.26829603,1.02667 -0.48781097,0.18667 -0.48781097,-1.86666 z m 545.06663047,0 c 0,-2.05334 0.21952,-2.89334 0.48782,-1.86667 0.26829,1.02667 0.26829,2.70667 0,3.73333 -0.2683,1.02667 -0.48782,0.18667 -0.48782,-1.86666 z M 46.93333,47.466664 c 1.990169,-2.053333 3.85849,-3.733333 4.151823,-3.733333 0.293333,0 -1.094988,1.68 -3.085156,3.733333 -1.990168,2.053333 -3.858489,3.733333 -4.151823,3.733333 -0.293333,0 1.094988,-1.68 3.085156,-3.733333 z M 109.06666,0.3313861 c 1.02667,-0.26829603 2.70667,-0.26829603 3.73333,0 1.02667,0.26829603 0.18667,0.48781097 -1.86666,0.48781097 -2.05334,0 -2.89334,-0.21951494 -1.86667,-0.48781097 z m 324.26665,0 c 1.02666,-0.26829603 2.70666,-0.26829603 3.73333,0 1.02667,0.26829603 0.18667,0.48781097 -1.86667,0.48781097 -2.05333,0 -2.89333,-0.21951494 -1.86666,-0.48781097 z"
           id="path1456" />
        <path
           style="fill:#917900;stroke-width:1.06667"
           d="m 109.08696,527.26078 c 1.03783,-0.27044 2.47783,-0.25266 3.2,0.0396 0.72216,0.29219 -0.12697,0.51346 -1.88697,0.49172 -1.76,-0.0218 -2.35087,-0.2608 -1.31303,-0.53124 z m 325.33331,0 c 1.03784,-0.27044 2.47784,-0.25266 3.2,0.0396 0.72217,0.29219 -0.12696,0.51346 -1.88696,0.49172 -1.76,-0.0218 -2.35087,-0.2608 -1.31304,-0.53124 z m 92.72098,-92.59414 c 0.0218,-1.76 0.2608,-2.35087 0.53124,-1.31303 0.27044,1.03783 0.25266,2.47783 -0.0396,3.2 -0.29219,0.72216 -0.51346,-0.12697 -0.49173,-1.88697 z m -293.67733,-79.2 c -1.32679,-1.69179 -1.28906,-1.72952 0.40273,-0.40273 1.02667,0.80518 1.86667,1.64518 1.86667,1.86667 0,0.2215 -0.18123,0.40273 -0.40273,0.40273 -0.2215,0 -1.06149,-0.84 -1.86667,-1.86667 z m -8.53333,-9.59999 c -1.3268,-1.6918 -1.28907,-1.72953 0.40273,-0.40274 1.02667,0.80518 1.86667,1.64518 1.86667,1.86667 0,0.22151 -0.18123,0.40273 -0.40273,0.40273 -0.2215,0 -1.0615,-0.84 -1.86667,-1.86666 z m 24.53333,0 c -1.32679,-1.6918 -1.28907,-1.72953 0.40273,-0.40274 1.02667,0.80518 1.86667,1.64518 1.86667,1.86667 0,0.22151 -0.18123,0.40273 -0.40273,0.40273 -0.2215,0 -1.0615,-0.84 -1.86667,-1.86666 z m -33.06666,-9.6 c -1.3268,-1.6918 -1.28907,-1.72953 0.40273,-0.40273 1.02666,0.80517 1.86666,1.64517 1.86666,1.86666 0,0.22151 -0.18122,0.40273 -0.40273,0.40273 -0.22149,0 -1.06149,-0.84 -1.86666,-1.86666 z m 24.53333,0 c -1.3268,-1.6918 -1.28907,-1.72953 0.40273,-0.40273 1.02667,0.80517 1.86667,1.64517 1.86667,1.86666 0,0.22151 -0.18123,0.40273 -0.40274,0.40273 -0.22149,0 -1.06149,-0.84 -1.86666,-1.86666 z m -33.06667,-9.6 c -1.32679,-1.6918 -1.28906,-1.72953 0.40273,-0.40273 1.02667,0.80517 1.86667,1.64517 1.86667,1.86666 0,0.22151 -0.18123,0.40273 -0.40273,0.40273 -0.22149,0 -1.06149,-0.84 -1.86667,-1.86666 z m 24.53334,0 c -1.3268,-1.6918 -1.28907,-1.72953 0.40273,-0.40273 1.02666,0.80517 1.86666,1.64517 1.86666,1.86666 0,0.22151 -0.18122,0.40273 -0.40273,0.40273 -0.22149,0 -1.06149,-0.84 -1.86666,-1.86666 z m -8.53334,-9.6 c -1.32679,-1.6918 -1.28906,-1.72953 0.40273,-0.40273 1.02667,0.80517 1.86667,1.64517 1.86667,1.86666 0,0.22151 -0.18123,0.40273 -0.40273,0.40273 -0.22149,0 -1.06149,-0.84 -1.86667,-1.86666 z m -8.53333,-9.6 c -1.3268,-1.6918 -1.28907,-1.72953 0.40273,-0.40273 1.02667,0.80517 1.86667,1.64517 1.86667,1.86666 0,0.22151 -0.18123,0.40273 -0.40273,0.40273 -0.2215,0 -1.0615,-0.84 -1.86667,-1.86666 z m -8.53333,-9.6 c -1.3268,-1.6918 -1.28907,-1.72953 0.40273,-0.40273 1.02666,0.80517 1.86666,1.64517 1.86666,1.86666 0,0.22151 -0.18122,0.40274 -0.40273,0.40274 -0.22149,0 -1.06149,-0.84 -1.86666,-1.86667 z m -8.53334,-9.6 c -1.32679,-1.6918 -1.28906,-1.72953 0.40273,-0.40273 1.02667,0.80517 1.86667,1.64517 1.86667,1.86666 0,0.22151 -0.18123,0.40274 -0.40273,0.40274 -0.22149,0 -1.06149,-0.84 -1.86667,-1.86667 z m 92.6694,-6.39922 c 15.39999,-0.16657 40.59999,-0.16657 55.99999,0 15.4,0.16658 2.8,0.30287 -28,0.30287 -30.79999,0 -43.39999,-0.13629 -27.99999,-0.30287 z m 0,-18.13333 c 15.39999,-0.16657 40.59999,-0.16657 55.99999,0 15.4,0.16658 2.8,0.30287 -28,0.30287 -30.79999,0 -43.39999,-0.13629 -27.99999,-0.30287 z m -118.13333,-4.93685 c 0,-0.22149 0.84,-1.06149 1.86667,-1.86666 1.69179,-1.3268 1.72952,-1.28907 0.40273,0.40273 -0.80518,1.02666 -1.64518,1.86666 -1.86667,1.86666 -0.2215,0 -0.40273,-0.18122 -0.40273,-0.40273 z m 8.53333,-9.6 c 0,-0.22149 0.84,-1.06149 1.86667,-1.86666 1.6918,-1.3268 1.72952,-1.28907 0.40273,0.40273 -0.80517,1.02666 -1.64517,1.86666 -1.86667,1.86666 -0.2215,0 -0.40273,-0.18122 -0.40273,-0.40273 z m 8.53334,-9.6 c 0,-0.22149 0.84,-1.06149 1.86666,-1.86666 1.6918,-1.3268 1.72953,-1.28907 0.40273,0.40273 -0.80517,1.02667 -1.64517,1.86667 -1.86666,1.86667 -0.22151,0 -0.40273,-0.18123 -0.40273,-0.40274 z m 24.53333,0 c 0,-0.22149 0.84,-1.06149 1.86666,-1.86666 1.6918,-1.3268 1.72953,-1.28907 0.40273,0.40273 -0.80517,1.02667 -1.64517,1.86667 -1.86666,1.86667 -0.22151,0 -0.40273,-0.18123 -0.40273,-0.40274 z m -16,-9.59999 c 0,-0.2215 0.84,-1.0615 1.86666,-1.86667 1.6918,-1.3268 1.72953,-1.28907 0.40274,0.40273 -0.80518,1.02667 -1.64518,1.86667 -1.86667,1.86667 -0.22151,0 -0.40273,-0.18123 -0.40273,-0.40273 z m 24.53333,0 c 0,-0.2215 0.84,-1.0615 1.86667,-1.86667 1.69179,-1.3268 1.72952,-1.28907 0.40273,0.40273 -0.80518,1.02667 -1.64518,1.86667 -1.86667,1.86667 -0.2215,0 -0.40273,-0.18123 -0.40273,-0.40273 z m -16,-9.6 c 0,-0.2215 0.84,-1.0615 1.86667,-1.86667 1.69179,-1.3268 1.72952,-1.28907 0.40273,0.40273 -0.80518,1.02667 -1.64518,1.86667 -1.86667,1.86667 -0.2215,0 -0.40273,-0.18123 -0.40273,-0.40273 z m 24.53333,0 c 0,-0.2215 0.84,-1.0615 1.86667,-1.86667 1.6918,-1.3268 1.72952,-1.28907 0.40273,0.40273 -0.80517,1.02667 -1.64517,1.86667 -1.86667,1.86667 -0.2215,0 -0.40273,-0.18123 -0.40273,-0.40273 z m -16,-9.6 c 0,-0.2215 0.84,-1.0615 1.86667,-1.86667 1.6918,-1.32679 1.72953,-1.28907 0.40273,0.40273 -0.80517,1.02667 -1.64517,1.86667 -1.86667,1.86667 -0.2215,0 -0.40273,-0.18123 -0.40273,-0.40273 z m 24.53334,0 c 0,-0.2215 0.84,-1.0615 1.86666,-1.86667 1.6918,-1.32679 1.72953,-1.28907 0.40273,0.40273 -0.80517,1.02667 -1.64517,1.86667 -1.86666,1.86667 -0.22151,0 -0.40273,-0.18123 -0.40273,-0.40273 z m 287.14126,-99.3306 c 0.0218,-1.76 0.2608,-2.35087 0.53124,-1.31303 0.27044,1.03783 0.25266,2.47783 -0.0396,3.2 -0.29219,0.72216 -0.51346,-0.12697 -0.49173,-1.88697 z M 109.08696,18.460808 c 1.03783,-0.270445 2.47783,-0.25266 3.2,0.03952 0.72216,0.292185 -0.12697,0.51346 -1.88697,0.491721 -1.76,-0.02174 -2.35087,-0.260798 -1.31303,-0.531245 z m 325.33331,0 c 1.03784,-0.270445 2.47784,-0.25266 3.2,0.03952 0.72217,0.292185 -0.12696,0.51346 -1.88696,0.491721 -1.76,-0.02174 -2.35087,-0.260798 -1.31304,-0.531245 z"
           id="path1454" />
        <path
           style="fill:#6b5c00;stroke-width:1.06667"
           d="m 498.1333,498.66664 c 1.37787,-1.46667 2.74521,-2.66667 3.03854,-2.66667 0.29333,0 -0.594,1.2 -1.97187,2.66667 -1.37787,1.46666 -2.74521,2.66666 -3.03854,2.66666 -0.29333,0 0.59401,-1.2 1.97187,-2.66666 z m -260.34738,-138.93333 -2.58593,-2.93333 2.93333,2.58593 c 1.61333,1.42227 2.93333,2.74227 2.93333,2.93333 0,0.19107 -0.15633,0.3474 -0.3474,0.3474 -0.19106,0 -1.51106,-1.32 -2.93333,-2.93333 z m 8.478,-17.06666 c -1.32679,-1.6918 -1.28907,-1.72953 0.40273,-0.40273 1.02667,0.80517 1.86667,1.64517 1.86667,1.86666 0,0.22151 -0.18123,0.40273 -0.40273,0.40273 -0.2215,0 -1.0615,-0.84 -1.86667,-1.86666 z m -8.53333,-9.6 c -1.3268,-1.6918 -1.28907,-1.72953 0.40273,-0.40273 1.02667,0.80517 1.86667,1.64517 1.86667,1.86666 0,0.22151 -0.18123,0.40273 -0.40274,0.40273 -0.22149,0 -1.06149,-0.84 -1.86666,-1.86666 z m -8.53333,-9.6 c -1.3268,-1.6918 -1.28907,-1.72953 0.40273,-0.40273 1.02666,0.80517 1.86666,1.64517 1.86666,1.86666 0,0.22151 -0.18122,0.40273 -0.40273,0.40273 -0.22149,0 -1.06149,-0.84 -1.86666,-1.86666 z m -27.73334,-4.26667 c -1.32679,-1.6918 -1.28906,-1.72952 0.40273,-0.40273 1.02667,0.80517 1.86667,1.64517 1.86667,1.86667 0,0.2215 -0.18123,0.40273 -0.40273,0.40273 -0.22149,0 -1.06149,-0.84 -1.86667,-1.86667 z m 19.2,-5.33333 c -1.32679,-1.6918 -1.28906,-1.72953 0.40273,-0.40273 1.02667,0.80517 1.86667,1.64517 1.86667,1.86666 0,0.22151 -0.18123,0.40273 -0.40273,0.40273 -0.22149,0 -1.06149,-0.84 -1.86667,-1.86666 z m -27.73333,-4.26667 c -1.32679,-1.6918 -1.28907,-1.72952 0.40273,-0.40273 1.02667,0.80517 1.86667,1.64517 1.86667,1.86667 0,0.2215 -0.18123,0.40273 -0.40273,0.40273 -0.2215,0 -1.0615,-0.84 -1.86667,-1.86667 z m 19.2,-5.33333 c -1.32679,-1.6918 -1.28907,-1.72953 0.40273,-0.40273 1.02667,0.80517 1.86667,1.64517 1.86667,1.86666 0,0.22151 -0.18123,0.40273 -0.40273,0.40273 -0.2215,0 -1.0615,-0.84 -1.86667,-1.86666 z m -27.73333,-4.26667 c -1.3268,-1.6918 -1.28907,-1.72952 0.40273,-0.40273 1.02667,0.80517 1.86667,1.64517 1.86667,1.86667 0,0.2215 -0.18123,0.40273 -0.40274,0.40273 -0.22149,0 -1.06149,-0.84 -1.86666,-1.86667 z m 106.61086,6.3e-4 c 15.44115,-0.16665 40.40115,-0.16651 55.46666,3.3e-4 15.06553,0.16684 2.43187,0.3032 -28.0748,0.30302 -30.50666,-1.8e-4 -42.833,-0.13668 -27.39186,-0.30335 z m -87.41086,-5.33396 c -1.3268,-1.6918 -1.28907,-1.72953 0.40273,-0.40273 1.02666,0.80517 1.86666,1.64517 1.86666,1.86666 0,0.22151 -0.18122,0.40274 -0.40273,0.40274 -0.22149,0 -1.06149,-0.84 -1.86666,-1.86667 z m -27.73333,-4.26667 c -1.3268,-1.69179 -1.28907,-1.72952 0.40273,-0.40273 1.02666,0.80517 1.86666,1.64517 1.86666,1.86667 0,0.2215 -0.18122,0.40273 -0.40273,0.40273 -0.22149,0 -1.06149,-0.84 -1.86666,-1.86667 z m 19.19999,-5.33333 c -1.32679,-1.6918 -1.28906,-1.72953 0.40273,-0.40273 1.02667,0.80517 1.86667,1.64517 1.86667,1.86667 0,0.2215 -0.18123,0.40273 -0.40273,0.40273 -0.22149,0 -1.06149,-0.84 -1.86667,-1.86667 z m -27.73333,-4.26667 c -1.32679,-1.69179 -1.28906,-1.72952 0.40273,-0.40273 1.02667,0.80518 1.86667,1.64518 1.86667,1.86667 0,0.2215 -0.18123,0.40273 -0.40273,0.40273 -0.22149,0 -1.06149,-0.84 -1.86667,-1.86667 z m 19.2,-5.33333 c -1.32679,-1.6918 -1.28907,-1.72953 0.40273,-0.40273 1.02667,0.80517 1.86667,1.64517 1.86667,1.86667 0,0.2215 -0.18123,0.40273 -0.40273,0.40273 -0.2215,0 -1.0615,-0.84 -1.86667,-1.86667 z m 0.13607,-4.93606 c 0,-0.2215 0.84,-1.0615 1.86666,-1.86667 1.6918,-1.32679 1.72953,-1.28907 0.40273,0.40273 -0.80517,1.02667 -1.64517,1.86667 -1.86666,1.86667 -0.22151,0 -0.40273,-0.18123 -0.40273,-0.40273 z m -19.2,-5.33334 c 0,-0.22149 0.84,-1.06149 1.86666,-1.86666 1.6918,-1.3268 1.72953,-1.28907 0.40273,0.40273 -0.80517,1.02666 -1.64517,1.86666 -1.86666,1.86666 -0.22151,0 -0.40273,-0.18122 -0.40273,-0.40273 z m 27.73333,-4.26666 c 0,-0.2215 0.84,-1.0615 1.86666,-1.86667 1.6918,-1.32679 1.72953,-1.28907 0.40274,0.40273 -0.80518,1.02667 -1.64518,1.86667 -1.86667,1.86667 -0.22151,0 -0.40273,-0.18123 -0.40273,-0.40273 z m -19.2,-5.33334 c 0,-0.22149 0.84,-1.06149 1.86667,-1.86666 1.69179,-1.3268 1.72952,-1.28907 0.40273,0.40273 -0.80518,1.02666 -1.64518,1.86666 -1.86667,1.86666 -0.2215,0 -0.40273,-0.18122 -0.40273,-0.40273 z m 27.73333,-4.26666 c 0,-0.2215 0.84,-1.0615 1.86667,-1.86667 1.69179,-1.32679 1.72952,-1.28907 0.40273,0.40273 -0.80518,1.02667 -1.64518,1.86667 -1.86667,1.86667 -0.2215,0 -0.40273,-0.18123 -0.40273,-0.40273 z m -19.2,-5.33334 c 0,-0.22149 0.84,-1.06149 1.86667,-1.86666 1.6918,-1.3268 1.72952,-1.28907 0.40273,0.40273 -0.80517,1.02667 -1.64517,1.86666 -1.86667,1.86666 -0.2215,0 -0.40273,-0.18122 -0.40273,-0.40273 z m 106.4748,-0.39664 c 15.44115,-0.16665 40.40115,-0.1665 55.46666,3.4e-4 15.06553,0.16683 2.43187,0.30319 -28.0748,0.30301 -30.50666,-1.8e-4 -42.833,-0.13668 -27.39186,-0.30335 z m -97.94147,-9.20336 c 0,-0.22149 0.84,-1.06149 1.86667,-1.86666 1.6918,-1.3268 1.72953,-1.28907 0.40273,0.40273 -0.80517,1.02667 -1.64517,1.86667 -1.86666,1.86667 -0.22151,0 -0.40274,-0.18123 -0.40274,-0.40274 z m 26.66667,-3.19999 c 0,-0.2215 0.84,-1.0615 1.86667,-1.86667 1.69179,-1.3268 1.72952,-1.28907 0.40273,0.40273 -0.80518,1.02667 -1.64518,1.86667 -1.86667,1.86667 -0.2215,0 -0.40273,-0.18123 -0.40273,-0.40273 z m -18.13333,-6.4 c 0,-0.2215 0.84,-1.0615 1.86666,-1.86667 1.6918,-1.3268 1.72953,-1.28907 0.40273,0.40273 -0.80517,1.02667 -1.64517,1.86667 -1.86666,1.86667 -0.22151,0 -0.40273,-0.18123 -0.40273,-0.40273 z m 26.66666,-3.2 c 0,-0.2215 0.84,-1.0615 1.86667,-1.86667 1.6918,-1.3268 1.72952,-1.28907 0.40273,0.40273 -0.80517,1.02667 -1.64517,1.86667 -1.86667,1.86667 -0.2215,0 -0.40273,-0.18123 -0.40273,-0.40273 z m 8.53334,-9.6 c 0,-0.2215 0.84,-1.0615 1.86666,-1.86667 1.6918,-1.32679 1.72953,-1.28907 0.40273,0.40273 -0.80517,1.02667 -1.64517,1.86667 -1.86666,1.86667 -0.22151,0 -0.40273,-0.18123 -0.40273,-0.40273 z m 8.53333,-9.6 c 0,-0.2215 0.84,-1.0615 1.86666,-1.86667 1.6918,-1.32679 1.72953,-1.28907 0.40274,0.40273 -0.80518,1.02667 -1.64518,1.86667 -1.86667,1.86667 -0.2215,0 -0.40273,-0.18123 -0.40273,-0.40273 z m -19.2,-5.33334 c 0,-0.22149 0.84,-1.06149 1.86667,-1.86666 1.69179,-1.3268 1.72952,-1.28907 0.40273,0.40273 -0.80518,1.02666 -1.64518,1.86666 -1.86667,1.86666 -0.2215,0 -0.40273,-0.18122 -0.40273,-0.40273 z m 27.81754,-7.68615 c 0.0512,-1.24261 0.30394,-1.49536 0.64444,-0.64445 0.30813,0.77 0.27024,1.69 -0.0842,2.04445 -0.35445,0.35444 -0.60655,-0.27556 -0.56023,-1.4 z m -19.28421,-1.91385 c 0,-0.22149 0.84,-1.06149 1.86667,-1.86666 1.6918,-1.3268 1.72952,-1.28907 0.40273,0.40273 -0.80517,1.02667 -1.64517,1.86667 -1.86667,1.86667 -0.2215,0 -0.40273,-0.18123 -0.40273,-0.40274 z m 263.38592,-142.263923 -2.58593,-2.933333 2.93333,2.585935 c 1.61333,1.422264 2.93333,2.742264 2.93333,2.933333 0,0.191069 -0.15633,0.347398 -0.3474,0.347398 -0.19106,0 -1.51106,-1.32 -2.93333,-2.933333 z"
           id="path1452" />
        <path
           style="fill:#000000;stroke-width:1.06667"
           d="m 105.7109,544.91374 c -4.92567,-0.51485 -11.885669,-1.67895 -15.466668,-2.58689 -3.580997,-0.90794 -9.150904,-2.62107 -12.37757,-3.80695 -3.226667,-1.18587 -9.654364,-4.12671 -14.283772,-6.53516 -4.629408,-2.40847 -11.349407,-6.53721 -14.933332,-9.17498 -3.583926,-2.63777 -9.090278,-7.22906 -12.23634,-10.20287 -3.146063,-2.9738 -8.431592,-9.00692 -11.745621,-13.40692 -3.314029,-4.4 -8.021831,-11.84 -10.461781,-16.53333 -2.439951,-4.69334 -5.4065397,-11.17334 -6.5924196,-14.4 C 6.4275165,465.03997 4.7335653,459.51997 3.8490602,455.99997 2.9645553,452.47997 1.7366738,444.62911 1.1204347,438.55363 0.39365395,431.3883 0,373.24605 0,273.06665 0,172.88725 0.39365395,114.745 1.1204347,107.57967 1.7366738,101.50419 2.9645553,93.653328 3.8490602,90.133328 c 0.8845051,-3.52 2.5784563,-9.04 3.7643362,-12.266666 1.1858799,-3.226667 4.1267066,-9.654364 6.5351706,-14.283772 2.408463,-4.629408 6.5372,-11.349407 9.174971,-14.933332 2.63777,-3.583926 7.229062,-9.090278 10.20287,-12.23634 2.973807,-3.146063 9.006923,-8.431592 13.406922,-11.745621 4.4,-3.314029 11.84,-8.021831 16.533333,-10.461781 C 68.159996,11.765865 74.639995,8.7992763 77.866662,7.6133964 81.093328,6.4275165 86.613328,4.7335653 90.133328,3.8490602 93.653328,2.9645553 101.50419,1.7366738 107.57967,1.1204347 114.745,0.39365395 172.88725,0 273.06665,0 c 100.1794,0 158.32165,0.39365395 165.48698,1.1204347 6.07548,0.6162391 13.92634,1.8441206 17.44634,2.7286255 3.52,0.8845051 9.04,2.5784563 12.26667,3.7643362 3.22666,1.1858799 9.70666,4.1524686 14.4,6.5924196 4.69333,2.43995 12.13333,7.147752 16.53333,10.461781 4.4,3.314029 10.43312,8.599558 13.40692,11.745621 2.97381,3.146062 7.5651,8.652414 10.20287,12.23634 2.63777,3.583925 6.76651,10.303924 9.17498,14.933332 2.40845,4.629408 5.34929,11.057105 6.53516,14.283772 1.18588,3.226666 2.87983,8.746666 3.76434,12.266666 0.88451,3.52 2.11239,11.370862 2.72862,17.446342 0.72679,7.16533 1.12044,65.30758 1.12044,165.48698 0,100.1794 -0.39365,158.32165 -1.12044,165.48698 -0.61623,6.07548 -1.84411,13.92634 -2.72862,17.44634 -0.88451,3.52 -2.57846,9.04 -3.76434,12.26667 -1.18587,3.22666 -4.15247,9.70666 -6.59241,14.4 -2.43996,4.69333 -7.14776,12.13333 -10.46178,16.53333 -3.31404,4.4 -8.59957,10.43312 -11.74562,13.40692 -3.14607,2.97381 -8.65242,7.5651 -12.23634,10.20287 -3.58393,2.63777 -10.30393,6.76651 -14.93334,9.17498 -4.6294,2.40845 -11.05711,5.34929 -14.28377,6.53516 -3.22667,1.18588 -8.74667,2.87983 -12.26667,3.76434 -3.52,0.88451 -11.37086,2.11239 -17.44634,2.72862 -7.24552,0.73491 -64.86759,1.07167 -167.46666,0.9787 -86.03117,-0.078 -160.4504,-0.56297 -165.37607,-1.07782 z m 348.68907,-20.30929 c 4.98667,-1.5742 11.84583,-4.09662 15.24257,-5.60538 3.39675,-1.50875 9.53042,-4.95316 13.6304,-7.65423 4.09997,-2.70107 10.98843,-8.44498 15.30767,-12.76423 4.31925,-4.31924 10.10737,-11.27482 12.86248,-15.45681 2.75512,-4.18201 6.39132,-10.85135 8.08046,-14.82077 1.68914,-3.96943 4.16735,-11.00147 5.50713,-15.62676 l 2.43595,-8.40963 V 273.06665 101.86666 l -2.43595,-8.409629 c -1.33978,-4.625296 -3.81799,-11.657339 -5.50713,-15.626762 -1.68914,-3.969422 -5.32534,-10.638768 -8.08046,-14.820768 -2.75511,-4.182 -8.54323,-11.137567 -12.86248,-15.456816 -4.31924,-4.319249 -11.27482,-10.107364 -15.45681,-12.862478 -4.18201,-2.755115 -10.85135,-6.391323 -14.82077,-8.080464 -3.96943,-1.689141 -11.00147,-4.167345 -15.62676,-5.507121 l -8.40963,-2.435956 H 273.06665 c -164.62315,0 -171.48683,0.07756 -178.666656,2.018861 -4.106666,1.110375 -11.155388,3.57272 -15.663827,5.471878 -4.508438,1.899159 -11.67531,5.765285 -15.926382,8.591392 -4.251073,2.826107 -11.147735,8.556889 -15.325917,12.735071 -4.178182,4.178182 -9.908964,11.074844 -12.735071,15.325917 -2.826107,4.251072 -6.690473,11.417944 -8.58748,15.926382 -1.897007,4.508439 -4.353124,11.317161 -5.458039,15.130494 -1.922733,6.635819 -2.023586,14.119389 -2.350319,174.399989 -0.249209,122.25039 -0.01087,169.58652 0.882717,175.31794 0.673254,4.31821 2.171753,10.79821 3.329997,14.4 1.158244,3.60179 3.995217,10.40749 6.304383,15.12377 2.309167,4.71627 7.336836,12.4975 11.172598,17.29161 3.835761,4.79411 10.896564,11.85491 15.690674,15.69068 4.794109,3.83576 12.575337,8.8588 17.291615,11.16231 4.716279,2.30352 10.975052,4.988 13.908385,5.96553 2.933333,0.97752 8.453333,2.4125 12.266666,3.18884 5.601856,1.14046 39.503316,1.3777 176.533326,1.23541 l 169.59999,-0.17611 z M 240.50053,361.38362 c -1.64292,-1.29234 -19.24128,-20.61233 -39.10745,-42.93334 -19.86618,-22.321 -36.41564,-41.73103 -36.7766,-43.13342 -0.36096,-1.40239 -0.22733,-3.67635 0.29695,-5.05326 0.52428,-1.37691 17.45682,-21.10949 37.62787,-43.85021 20.17106,-22.7407 37.69106,-41.92972 38.93333,-42.64227 1.24228,-0.71255 3.27395,-1.31255 4.51484,-1.33333 1.24088,-0.0208 3.52088,0.95704 5.06666,2.17295 2.17879,1.71384 2.81052,3.14677 2.81052,6.37502 0,3.9524 -1.73652,6.12291 -34.13333,42.66393 -18.77333,21.17482 -34.13333,38.95426 -34.13333,39.50987 0,0.55561 15.36,18.28124 34.13333,39.3903 21.8948,24.61888 34.17864,39.24121 34.25971,40.78177 0.0695,1.32092 0.0448,3.12168 -0.0548,4.00168 -0.0996,0.88 -1.38328,2.68 -2.85252,4 -1.46924,1.32 -3.77985,2.4 -5.13469,2.4 -1.35482,0 -3.80755,-1.05736 -5.45048,-2.34969 z m 18.47472,-63.10449 c -1.0036,-0.76249 -2.31171,-2.66722 -2.90692,-4.23275 -0.73183,-1.92484 -0.73183,-3.76796 0,-5.6928 0.59521,-1.56552 1.90332,-3.47026 2.90692,-4.23274 1.4438,-1.09692 13.91551,-1.39342 59.73988,-1.42027 l 57.91515,-0.0339 2.61818,2.61819 c 1.65039,1.65037 2.61818,3.83688 2.61818,5.91514 0,2.07826 -0.96779,4.26477 -2.61818,5.91515 l -2.61818,2.61819 -57.91515,-0.0339 c -45.82437,-0.0269 -58.29608,-0.32335 -59.73988,-1.42027 z m 0,-36.26667 c -1.0036,-0.76248 -2.31171,-2.66722 -2.90692,-4.23274 -0.73183,-1.92484 -0.73183,-3.76796 0,-5.6928 0.59521,-1.56553 1.90332,-3.47026 2.90692,-4.23275 1.4438,-1.09692 13.91551,-1.39342 59.73988,-1.42027 l 57.91515,-0.0339 2.61818,2.61819 c 1.65039,1.65038 2.61818,3.83689 2.61818,5.91515 0,2.07826 -0.96779,4.26477 -2.61818,5.91514 l -2.61818,2.61819 -57.91515,-0.0339 c -45.82437,-0.0269 -58.29608,-0.32335 -59.73988,-1.42027 z"
           id="path1450" />
      </g>
    </g>
  </g>
</svg>
