<?xml version="1.0" encoding="UTF-8" standalone="no"?>
<!-- Created with Inkscape (http://www.inkscape.org/) -->

<svg
   version="1.1"
   id="svg1361"
   width="32.251968"
   height="32.251968"
   viewBox="0 0 32.251968 32.251968"
   sodipodi:docname="magnifying-glass.png"
   xmlns:inkscape="http://www.inkscape.org/namespaces/inkscape"
   xmlns:sodipodi="http://sodipodi.sourceforge.net/DTD/sodipodi-0.dtd"
   xmlns="http://www.w3.org/2000/svg"
   xmlns:svg="http://www.w3.org/2000/svg">
  <defs
     id="defs1365" />
  <sodipodi:namedview
     id="namedview1363"
     pagecolor="#ffffff"
     bordercolor="#000000"
     borderopacity="0.25"
     inkscape:showpageshadow="2"
     inkscape:pageopacity="0.0"
     inkscape:pagecheckerboard="0"
     inkscape:deskcolor="#d1d1d1"
     showgrid="false" />
  <g
     inkscape:groupmode="layer"
     inkscape:label="Image"
     id="g1367">
    <path
       style="fill:#fafafa;fill-opacity:1;stroke-width:0.0629921"
       d="m 3.2082822,32.17012 c 0.760996,-0.149758 0.728453,-0.121373 4.81926,-4.203469 2.1074768,-2.102989 3.9101848,-3.937003 4.0060178,-4.075586 0.09583,-0.138582 0.226169,-0.3937 0.289636,-0.566929 0.06347,-0.173228 0.123323,-0.325556 0.133013,-0.338506 0.0097,-0.01295 0.251411,0.126424 0.537156,0.309723 1.883067,1.207937 4.282384,1.887051 6.666967,1.887051 3.375843,0 6.444631,-1.257982 8.853109,-3.629136 1.918842,-1.889106 3.157464,-4.330528 3.59399,-7.084037 0.144993,-0.914586 0.146743,-2.83183 0.0034,-3.697898 C 31.740707,8.5354535 30.970309,6.6893534 29.686821,4.9626982 29.234101,4.3536617 27.890674,3.0102347 27.281637,2.5575148 25.540675,1.2633922 23.540274,0.43852172 21.329647,0.10319697 c -0.745064,-0.113017 -2.758669,-0.094434 -3.554543,0.032805 -3.704756,0.59228845 -6.754876,2.57888263 -8.7805338,5.71890783 -2.033557,3.1522699 -2.500563,7.3193142 -1.226873,10.9472592 0.260671,0.742488 0.784615,1.830403 1.173488,2.436621 0.352653,0.549755 0.368714,0.589283 0.239446,0.589283 -0.04731,0 -0.281172,0.09803 -0.519685,0.217853 -0.395712,0.198789 -0.773773,0.558469 -4.320283,4.110236 -3.38475296,3.38977 -3.90765096,3.938481 -4.04947296,4.24937 -0.918867,2.014262 0.76552796,4.188004 2.91711596,3.764588 z M 18.053186,21.871882 C 14.996572,21.348094 12.391067,19.350156 11.100039,16.54011 10.121162,14.40949 9.9693962,11.839961 10.69523,9.6863412 11.508227,7.2741042 13.084967,5.4195527 15.321683,4.24474 c 2.882264,-1.5138803 6.551358,-1.3673229 9.318546,0.3722179 1.121833,0.7052188 2.277973,1.8614777 2.986819,2.9871243 1.311257,2.082276 1.75022,4.8169278 1.158321,7.2161168 -1.189997,4.823515 -5.853489,7.887707 -10.732183,7.051683 z"
       id="path2214" />
  </g>
</svg>
